<?xml version="1.0" encoding="UTF-8" standalone="no"?><!DOCTYPE svg PUBLIC "-//W3C//DTD SVG 1.1//EN" "http://www.w3.org/Graphics/SVG/1.1/DTD/svg11.dtd"><svg width="100%" height="100%" viewBox="0 0 200 200" version="1.1" xmlns="http://www.w3.org/2000/svg" xmlns:xlink="http://www.w3.org/1999/xlink" xml:space="preserve" xmlns:serif="http://www.serif.com/" style="fill-rule:evenodd;clip-rule:evenodd;stroke-linecap:round;stroke-linejoin:round;stroke-miterlimit:1.5;"><g><path d="M49.659,30.285c14.155,-10.244 31.548,-16.285 50.341,-16.285c47.465,0 86,38.535 86,86c0,18.762 -6.021,36.128 -16.234,50.271" style="fill:none;stroke:#000;stroke-width:4.17px;"/><path d="M150.298,169.747c-14.148,10.225 -31.525,16.253 -50.298,16.253c-47.465,0 -86,-38.535 -86,-86c0,-18.793 6.041,-36.186 16.285,-50.341" style="fill:none;stroke:#000;stroke-width:4.17px;"/><g><path d="M31.895,46.991l-0,0l-14.38,2.968l-0,0l14.38,-2.968Z" style="fill:none;stroke:#000;stroke-width:4.17px;"/><path d="M31.895,46.991l-0,0l2.967,14.38l0,0l-2.967,-14.38Z" style="fill:none;stroke:#000;stroke-width:4.17px;"/></g><g><path d="M168.757,152.439l0,0l14.097,-4.108l-0,-0l-14.097,4.108Z" style="fill:none;stroke:#000;stroke-width:4.17px;"/><path d="M168.757,152.439l0,0l-4.108,-14.096l-0,-0l4.108,14.096Z" style="fill:none;stroke:#000;stroke-width:4.17px;"/></g></g></svg>