<?xml version="1.0" standalone="no"?>
<!DOCTYPE svg PUBLIC "-//W3C//DTD SVG 1.1//EN" 
  "http://www.w3.org/Graphics/SVG/1.1/DTD/svg11.dtd">
<svg xmlns="http://www.w3.org/2000/svg" width="201" height="242"  viewBox="0 0 201 242">
	<style type="text/css">
		<![CDATA[
		rect {
			fill:transparent;
			stroke:#5A524F;
			stroke-width:2;
		}
		]]>
	</style>
	<rect y="1" x= "1" width="74" height="72" />

	<!-- <rect y="1" x="83" width="32" height="32" />
	<rect y="1" x="125" width="32" height="32" />
	<rect y="1" x="167" width="32" height="32" /> -->

	<rect y="41" x="83" width="32" height="32" />
	<rect y="41" x="125" width="32" height="32" />
	<rect y="41" x="167" width="32" height="32" />

	<rect y="81" x="1" width="32" height="32" />
	<rect y="81" x="43" width="32" height="32" />
	<rect y="81" x="84" width="32" height="32" />
	<rect y="81" x="125" width="32" height="32" />
	<rect y="81" x="167" width="32" height="32" />

	<rect y="122" x="1" width="32" height="32" />
	<rect y="122" x="43" width="32" height="32" />
	<rect y="122" x="84" width="32" height="32" />
	<rect y="122" x= "125" width="74" height="73" />


	<rect y="162" x="1" width="32" height="32" />
	<rect y="162" x="43" width="32" height="32" />
	<rect y="162" x="84" width="32" height="32" />


	<rect y="202" x="84" width="32" height="32" />
	<rect y="202" x="125" width="32" height="32" />
	<rect y="202" x="167" width="32" height="32" />
</svg>